<?xml version="1.0" standalone="no"?>
<!DOCTYPE svg PUBLIC "-//W3C//DTD SVG 20010904//EN"
 "http://www.w3.org/TR/2001/REC-SVG-20010904/DTD/svg10.dtd">
<svg version="1.0" xmlns="http://www.w3.org/2000/svg"
 width="1280.000000pt" height="1035.000000pt" viewBox="0 0 1280.000000 1035.000000"
 preserveAspectRatio="xMidYMid meet">
<metadata>
Created by potrace 1.15, written by Peter Selinger 2001-2017
</metadata>
<g transform="translate(0.000000,1035.000000) scale(0.100000,-0.100000)"
fill="#000000" stroke="none">
<path d="M2492 10298 c-36 -50 -845 -1179 -1960 -2738 -277 -388 -511 -713
-520 -723 -8 -9 -13 -19 -11 -20 11 -10 3956 -2504 3978 -2516 55 -30 62 -31
82 -20 20 10 20 9 -2 -20 l-22 -30 28 -73 c67 -175 142 -274 233 -309 73 -27
245 -30 379 -4 l91 17 156 172 c85 95 164 183 174 196 l18 22 204 -179 c471
-412 778 -703 1820 -1723 515 -505 934 -909 971 -939 26 -20 76 -34 784 -216
1716 -440 2585 -691 3212 -926 148 -55 195 -78 248 -118 191 -147 322 -184
387 -112 29 32 58 115 58 164 0 105 -94 216 -227 267 -34 13 -54 32 -99 95
-359 499 -932 1597 -1824 3497 l-224 477 -200 92 c-1026 472 -2102 1023 -3146
1612 -157 89 -302 170 -322 181 -21 12 -38 24 -38 27 0 4 30 60 67 125 36 66
92 173 125 239 49 102 58 128 58 175 0 132 -61 281 -150 370 -46 46 -66 59
-120 74 -36 11 -111 43 -166 73 -124 64 -145 66 -177 16 -18 -28 -31 -38 -50
-38 -22 0 -26 5 -30 43 -2 24 -6 44 -8 46 -2 2 -113 83 -247 180 -324 235
-523 385 -1342 1011 -979 748 -1359 1031 -1835 1365 -104 73 -218 153 -252
177 l-62 43 -39 -52z"/>
</g>
</svg>
